<svg width="37" height="37" viewBox="0 0 37 37" fill="none" xmlns="http://www.w3.org/2000/svg">
<path fill-rule="evenodd" clip-rule="evenodd" d="M0 2H22.5V4H2V34.5H33V13.5H35V36.5H0V2Z" fill="black"/>
<path fill-rule="evenodd" clip-rule="evenodd" d="M31 10C33.2091 10 35 8.20914 35 6C35 3.79086 33.2091 2 31 2C28.7909 2 27 3.79086 27 6C27 8.20914 28.7909 10 31 10ZM31 12C34.3137 12 37 9.31371 37 6C37 2.68629 34.3137 0 31 0C27.6863 0 25 2.68629 25 6C25 9.31371 27.6863 12 31 12Z" fill="black"/>
<path fill-rule="evenodd" clip-rule="evenodd" d="M26.2072 20.7072L18.5001 28.4143L13.0001 22.9143L7.20718 28.7072L5.79297 27.293L13.0001 20.0859L18.5001 25.5859L24.793 19.293L26.2072 20.7072Z" fill="black"/>
</svg>
