<svg width="16" height="15" viewBox="0 0 16 15" fill="none" xmlns="http://www.w3.org/2000/svg">
<path fill-rule="evenodd" clip-rule="evenodd" d="M2.92444 1.03602C4.54911 0.00607269 6.47754 -0.117301 7.75935 0.0769129L7.62763 0.946247C6.49148 0.774104 4.79298 0.892526 3.39521 1.77863C2.0286 2.64497 0.879256 4.2892 0.879256 7.32581C0.879256 11.1705 2.20279 12.7476 3.49958 13.42C4.65552 14.0194 5.86897 13.9616 6.52227 13.9305C6.58864 13.9273 6.64924 13.9244 6.7034 13.9225C6.74765 13.8789 6.80995 13.8072 6.89076 13.7009C7.0688 13.4668 7.29805 13.1161 7.56903 12.6664C8.10904 11.7701 8.78968 10.5225 9.51849 9.12798C10.9749 6.34117 12.61 2.99439 13.671 0.762447L14.4651 1.13996C13.4014 3.37757 11.7611 6.73511 10.2977 9.53524C9.56662 10.9342 8.87616 12.2007 8.32214 13.1202C8.0461 13.5783 7.79761 13.9609 7.59068 14.2331C7.48829 14.3678 7.38609 14.4888 7.28766 14.5803C7.23855 14.626 7.1799 14.6742 7.11333 14.7133C7.0518 14.7494 6.94688 14.7995 6.81423 14.7995C6.76667 14.7995 6.69601 14.8034 6.60556 14.8084C5.99714 14.8421 4.49293 14.9255 3.09484 14.2006C1.42414 13.3343 0 11.3944 0 7.32581C0 4.03178 1.26861 2.08571 2.92444 1.03602Z" fill="black"/>
<path fill-rule="evenodd" clip-rule="evenodd" d="M8.68151 0.57653C8.94972 0.878263 9.19225 1.31608 9.42055 1.88683C9.60608 2.35064 10.1632 4.00563 10.7802 5.83888C10.9142 6.23688 11.051 6.64328 11.1874 7.04772C11.5721 8.18798 11.9561 9.31933 12.2712 10.2201C12.5923 11.1379 12.8285 11.7768 12.9226 11.9649C13.3361 12.7919 13.8808 13.2606 14.5077 13.2606C14.9965 13.2606 15.1749 13.0954 15.2095 13.0633C15.2169 13.0564 15.2177 13.0557 15.2136 13.064L16 13.4572C15.8299 13.7975 15.3208 14.1399 14.5077 14.1399C13.3761 14.1399 12.602 13.2897 12.1362 12.3581C12.0104 12.1067 11.7521 11.3991 11.4412 10.5104C11.1244 9.60457 10.739 8.4691 10.3543 7.32878C10.2153 6.9167 10.0767 6.50484 9.94148 6.10332C9.32425 4.26981 8.77959 2.6519 8.60418 2.21338C8.39286 1.68506 8.19576 1.35352 8.02434 1.16068C7.85761 0.973097 7.08888 0.878987 7.03404 0.878987L7.69348 0.0717773C8.07828 0.0717773 8.40862 0.269527 8.68151 0.57653Z" fill="black"/>
</svg>
