<svg width="469" height="235" viewBox="0 0 469 235" fill="none" xmlns="http://www.w3.org/2000/svg">
<path d="M52.5861 234.641C58.3964 234.641 64.0327 233.522 69.3383 231.316C71.8881 230.255 74.3476 228.942 76.6483 227.414C78.9269 225.9 81.0697 224.162 83.0171 222.247C84.9643 220.332 86.7321 218.225 88.2714 215.984C89.8253 213.723 91.1599 211.305 92.2382 208.798C94.4815 203.582 95.6189 198.042 95.6189 192.331C95.6189 186.62 94.4815 181.079 92.2382 175.864C91.1599 173.357 89.8253 170.939 88.2714 168.677C86.7321 166.437 84.9643 164.33 83.0171 162.415C81.0698 160.5 78.927 158.761 76.6483 157.248C74.3477 155.719 71.8883 154.407 69.3383 153.346C64.0327 151.139 58.3964 150.02 52.5861 150.02C46.7757 150.02 41.1394 151.139 35.8338 153.346C33.2839 154.407 30.8244 155.719 28.5239 157.248C26.2451 158.761 24.1024 160.5 22.155 162.415C20.2078 164.33 18.44 166.437 16.9007 168.677C15.3468 170.939 14.0122 173.357 12.9339 175.864C10.6906 181.079 9.55322 186.62 9.55322 192.331C9.55322 198.042 10.6906 203.582 12.9339 208.798C14.0122 211.305 15.3468 213.723 16.9007 215.984C18.44 218.225 20.2078 220.332 22.155 222.247C24.1024 224.162 26.2452 225.9 28.5239 227.414C30.8245 228.942 33.284 230.255 35.8338 231.316C41.1395 233.522 46.7757 234.641 52.5861 234.641ZM52.5861 163.646C56.4588 163.646 60.2159 164.404 63.753 165.9C67.1693 167.345 70.2374 169.413 72.872 172.047C75.5066 174.682 77.5751 177.749 79.0201 181.165C80.5162 184.702 81.2748 188.459 81.2748 192.331C81.2748 196.203 80.5162 199.96 79.0201 203.496C77.5751 206.912 75.5066 209.98 72.872 212.614C70.2374 215.249 67.1693 217.317 63.753 218.762C60.2159 220.258 56.4588 221.016 52.5861 221.016C48.7133 221.016 44.9562 220.258 41.4191 218.762C38.0028 217.317 34.9348 215.249 32.3001 212.614C29.6655 209.98 27.597 206.912 26.152 203.496C24.6559 199.96 23.8973 196.203 23.8973 192.331C23.8973 188.459 24.6559 184.702 26.152 181.165C27.597 177.749 29.6655 174.682 32.3001 172.047C34.9348 169.413 38.0028 167.345 41.4191 165.9C44.9562 164.404 48.7133 163.646 52.5861 163.646Z" fill="#2E2E2D"/>
<path d="M310.784 234.641C316.594 234.641 322.23 233.522 327.536 231.316C330.086 230.255 332.545 228.942 334.846 227.414C337.124 225.9 339.267 224.162 341.215 222.247C343.162 220.332 344.93 218.225 346.469 215.984C348.023 213.723 349.357 211.305 350.436 208.798C352.679 203.582 353.816 198.042 353.816 192.331C353.816 186.62 352.679 181.079 350.436 175.864C349.357 173.357 348.023 170.939 346.469 168.677C344.93 166.437 343.162 164.33 341.215 162.415C339.267 160.5 337.124 158.761 334.846 157.248C332.545 155.719 330.086 154.407 327.536 153.346C322.23 151.139 316.594 150.02 310.784 150.02C304.973 150.02 299.337 151.139 294.031 153.346C291.481 154.407 289.022 155.719 286.721 157.248C284.443 158.761 282.3 160.5 280.353 162.415C278.405 164.33 276.638 166.437 275.098 168.677C273.544 170.939 272.21 173.357 271.131 175.864C268.888 181.079 267.751 186.62 267.751 192.331C267.751 198.042 268.888 203.582 271.131 208.798C272.21 211.305 273.544 213.723 275.098 215.984C276.638 218.225 278.405 220.332 280.353 222.247C282.3 224.162 284.443 225.9 286.721 227.414C289.022 228.942 291.481 230.255 294.031 231.316C299.337 233.522 304.973 234.641 310.784 234.641ZM310.784 163.646C314.656 163.646 318.413 164.404 321.951 165.9C325.367 167.345 328.435 169.413 331.07 172.047C333.704 174.682 335.773 177.749 337.218 181.165C338.714 184.702 339.472 188.459 339.472 192.331C339.472 196.203 338.714 199.96 337.218 203.496C335.773 206.912 333.704 209.98 331.07 212.614C328.435 215.249 325.367 217.317 321.951 218.762C318.413 220.258 314.656 221.016 310.784 221.016C306.911 221.016 303.154 220.258 299.617 218.762C296.2 217.317 293.132 215.249 290.498 212.614C287.863 209.98 285.794 206.912 284.349 203.496C282.853 199.96 282.095 196.203 282.095 192.331C282.095 188.459 282.853 184.702 284.349 181.165C285.794 177.749 287.863 174.682 290.498 172.047C293.132 169.413 296.2 167.345 299.617 165.9C303.154 164.404 306.911 163.646 310.784 163.646Z" fill="#2E2E2D"/>
<path d="M287.68 145.445C287.68 145.445 296.223 141.081 303.842 140.804C311.461 140.526 320.384 140.069 324.632 142.565C328.881 145.061 330.623 144.453 329.588 147.115C328.554 149.777 328.424 152.464 324.632 152.096C320.841 151.728 309.418 150.341 306.697 150.573C303.976 150.806 286.447 156.368 280.459 163.737C274.471 171.106 272.613 175.987 270.643 181.42C268.672 186.853 267.516 181.42 267.516 181.42L287.68 145.445Z" fill="#2E2E2D"/>
<path d="M22.2214 145.053C22.2214 145.053 13.3881 147.325 9.70807 151.78C5.06291 157.271 1.99274 163.917 0.82394 171.014C-0.555984 179.536 -0.318581 179.045 2.42621 177.98C5.17099 176.914 8.69608 172.326 11.1927 167.982C12.9062 165.199 15.2577 162.864 18.0529 161.169C18.0529 161.169 19.8825 165.322 24.444 164.311C26.1084 164.007 27.5889 163.067 28.5713 161.689C29.5537 160.312 29.9608 158.606 29.7062 156.933C29.3476 154.529 35.5996 153.174 35.5996 153.174C35.5996 153.174 28.3894 150.344 26.879 149.239C25.3685 148.134 22.2214 145.053 22.2214 145.053Z" fill="#2E2E2D"/>
<path d="M117.979 186.228C117.979 186.228 59.1061 212.423 52.8721 212.554C46.638 212.684 42.2996 214.38 36.4571 206.088C30.6147 197.796 27.0078 188.816 32.019 183.427C37.0302 178.038 44.4856 174.335 49.7342 174.788C54.9828 175.242 74.7715 171.451 74.7715 171.451L117.979 186.228Z" fill="#2E2E2D"/>
<path d="M217.725 25.3639L232.991 21.8565L243.887 15C243.887 15 264.813 18.0313 265.26 21.8565C265.708 25.6816 266.676 26.7516 265.26 33.8827C263.845 41.0139 262.615 43.6565 260.18 44.6102C257.745 45.564 245.468 41.1523 243.884 42.2437C242.3 43.3352 242.623 42.8597 243.221 44.6102C243.819 46.3608 258.713 60.215 276.07 83.716C293.426 107.217 298.922 113.167 299.896 118.118C300.87 123.069 276.775 167.272 272.986 171.964C269.197 176.657 262.859 195.491 250.562 200.431C238.264 205.371 227.019 209.252 198.859 206.362C170.699 203.472 95.9386 179.684 78.3525 173.035C60.7663 166.386 34.7758 154.935 24.9335 147.17C15.0911 139.405 18.9002 123.986 19.2502 114.182C19.6003 104.377 30.7214 99.6442 37.5393 97.3766C44.3571 95.1091 68.3409 97.8069 78.3489 102.36C88.3569 106.913 171.293 118.121 171.293 118.121C171.293 118.121 165.511 136.645 167.22 143.651C168.929 150.656 174.647 156.827 186.943 159.492C199.239 162.157 225.427 166.256 232.989 163.304C240.55 160.351 249.386 139.703 250.56 127.598C251.735 115.493 237.307 75.3686 232.989 66.2468C228.67 57.1249 219.382 43.8429 217.722 35.9409C216.062 28.0388 217.725 25.3639 217.725 25.3639Z" fill="#2E2E2D"/>
<path d="M171.939 117.965C171.939 117.965 179.719 122.28 181.649 109.8C183.579 97.3186 183.921 83.4142 168.313 81.8028C152.706 80.1914 131.253 85.017 123.6 81.8028C115.947 78.5886 95.2649 71.289 83.1145 71.583C70.9641 71.877 55.8302 70.0462 50.068 74.8251C44.3059 79.6041 43.4819 88.2821 45.2189 91.0731C46.9561 93.8642 84.5554 104.125 84.5554 104.125L123.6 111.277L171.939 117.965Z" fill="#2E2E2D"/>
<path d="M428.296 5.61551C428.296 5.61551 420.654 -0.262329 415.437 1.2482C410.22 2.75872 401.122 5.99618 399.501 10.3821C397.88 14.7679 393.07 50.5199 395.196 68.1899C397.322 85.8598 401.338 110.947 409.535 115.245C417.732 119.542 430.168 114.081 431.583 109.134C432.999 104.187 430.159 65.9802 430.047 57.4262C429.935 48.8723 431.261 19.6452 430.047 15.1758C429.247 12.0326 428.661 8.8384 428.296 5.61551Z" fill="#2E2E2D" stroke="#666766"/>
<path d="M431.978 13.9817L447.067 16.3321V94.6374H431.978V13.9817Z" fill="#2E2E2D" stroke="#666766"/>
<path d="M439.522 72.9215L437.439 76.1061L437.766 79.3064C437.766 79.3064 435.885 79.3621 435.916 82.1311C435.947 84.9 435.78 88.1925 437.439 89.4366C439.098 90.6807 441.556 91.5078 443.724 92.3262C445.891 93.1447 448.295 91.6235 450.784 92.7848C453.274 93.946 458.046 98.3255 459.11 100.554C460.174 102.782 459.078 103.033 461.226 104.783C463.374 106.532 464.787 107.829 465.882 106.405C466.977 104.98 468.56 102.209 467.801 99.9682C467.042 97.7277 463.961 92.0241 461.226 89.4345C458.491 86.8448 455.892 84.5715 455.861 84.4072C455.829 84.243 458.633 83.3452 457.09 82.1289C455.547 80.9127 452.506 80.1449 452.688 79.6521C452.87 79.1593 455.464 79.3129 455.084 77.2153C454.704 75.1177 455.485 74.0492 452.688 73.5779C449.89 73.1065 446.703 71.9816 445.204 72.4444C443.706 72.9072 439.522 72.9215 439.522 72.9215Z" fill="#2E2E2D" stroke="#666766"/>
<path d="M437.747 78.9636C439.606 79.4817 441.507 79.838 443.427 80.0285C446.679 80.1809 449.937 80.0089 453.155 79.515" fill="#2E2E2D"/>
<path d="M437.747 78.9636C439.606 79.4817 441.507 79.838 443.427 80.0285C446.679 80.1809 449.937 80.0089 453.155 79.515" stroke="#666766"/>
<path d="M464.885 105.709C464.885 110.639 465.144 115.361 464.885 120.203C464.717 123.346 463.106 126.525 461.961 129.426C460.764 132.454 458.763 135.593 456.83 138.209C453.145 143.198 447.9 146.607 444.018 151.385C442.52 153.228 440.457 153.917 438.565 155.24C435.895 157.108 432.756 158.819 429.742 160.071C422.914 162.907 416.329 165 408.925 165C401.379 165 394.11 164.341 386.818 162.267C383.328 161.275 379.595 160.322 376.459 158.51C374.069 157.129 372.106 155.358 369.841 153.825C361.998 148.516 354.619 141.981 348.454 134.794C343.697 129.248 338.454 124.072 333.732 118.544C329.996 114.17 324.119 111.272 319.234 108.345C312.893 104.544 306.942 100.831 299.383 100.439C294.902 100.207 290.472 100 286 100" stroke="#2E2E2D" stroke-width="3" stroke-linecap="round"/>
</svg>
