<svg width="7" height="15" viewBox="0 0 7 15" fill="none" xmlns="http://www.w3.org/2000/svg">
<path d="M2.66197 11.6221V10.9073C2.66197 10.3133 2.75728 9.79112 2.94789 9.34073C3.1385 8.88381 3.37512 8.47585 3.65775 8.11684C3.94695 7.75131 4.23286 7.40535 4.51549 7.07898C4.79812 6.75261 5.03474 6.42298 5.22535 6.09008C5.42254 5.75065 5.52113 5.37859 5.52113 4.97389V3.62272C5.52113 2.9765 5.33709 2.45757 4.96901 2.06593C4.60094 1.66775 4.11127 1.46867 3.5 1.46867C2.88873 1.46867 2.39906 1.66775 2.03099 2.06593C1.66291 2.45757 1.47887 2.9765 1.47887 3.62272V4.11227H0V3.62272C0 2.53264 0.318779 1.65796 0.956338 0.998694C1.60047 0.332898 2.44836 0 3.5 0C4.55822 0 5.4061 0.332898 6.04366 0.998694C6.68122 1.66449 7 2.53916 7 3.62272V4.97389C7 5.45039 6.90141 5.88773 6.70423 6.2859C6.51361 6.67755 6.277 7.04961 5.99437 7.40209C5.71174 7.75457 5.42582 8.11031 5.13662 8.46932C4.85399 8.8218 4.61408 9.19713 4.4169 9.5953C4.22629 9.99347 4.13099 10.4308 4.13099 10.9073V11.6221H2.66197ZM2.66197 15V12.5522H4.14085V15H2.66197Z" fill="black"/>
</svg>
