<svg width="16" height="25" viewBox="0 0 16 25" fill="none" xmlns="http://www.w3.org/2000/svg">
<path d="M10.6853 12.8494C10.4651 12.7098 10.3693 12.2228 9.96913 12.5961C9.91635 12.6077 9.86725 12.6322 9.82618 12.6673C9.78511 12.7024 9.75335 12.7472 9.7337 12.7975L9.71132 12.8154L9.64508 12.8817L9.62717 12.904C9.44833 13.0101 9.29687 13.1567 9.18495 13.3319L9.17421 13.3391L9.09007 13.4179L9.0847 13.4241C8.85374 13.5844 8.58966 13.7267 8.5834 14.0552C8.55923 15.3622 8.49388 16.6691 8.55117 17.9761C8.55117 18.9596 8.54908 19.9443 8.5449 20.9302C8.5449 21.2793 8.36587 21.6508 8.81346 21.9149C9.28253 22.1915 9.35056 22.7742 9.01129 23.1851C8.93521 23.2787 8.84049 23.3554 8.73315 23.4104C8.62581 23.4654 8.5082 23.4975 8.3878 23.5045C8.2674 23.5116 8.14684 23.4936 8.0338 23.4515C7.92076 23.4095 7.8177 23.3444 7.73119 23.2603C7.6391 23.1781 7.56669 23.0763 7.51936 22.9623C7.47202 22.8483 7.45097 22.7251 7.45776 22.6019C7.46456 22.4787 7.49902 22.3585 7.5586 22.2505C7.61818 22.1424 7.70134 22.0491 7.80191 21.9775C8.13581 21.7421 8.18773 21.4664 8.18146 21.1056C8.14655 18.874 8.12775 16.636 8.08926 14.407C8.083 14.0624 8.13939 13.767 8.3793 13.5172C8.85374 13.1395 9.23688 12.6731 9.64687 12.2327C9.77398 12.0975 9.81606 11.9731 9.65134 11.8227C9.42486 11.615 9.21539 11.3885 8.99876 11.1701C8.94656 11.0478 8.85087 10.9493 8.73021 10.8935V10.8997C8.69888 10.8666 8.66755 10.8326 8.63532 10.7995L8.64516 10.8075L8.54849 10.7064L8.55386 10.7109C8.46434 10.5524 8.35155 10.3868 8.16446 10.3886C7.41878 10.3966 6.67041 10.3071 5.92652 10.4369H5.91936C5.70272 10.5488 5.79135 10.7529 5.79135 10.9159C5.78329 12.6901 5.79135 14.4634 5.77881 16.2377C5.77881 16.5751 5.83073 16.8016 6.16463 16.9959C6.40324 17.1417 6.57666 17.3736 6.64898 17.6438C6.7213 17.9139 6.68698 18.2014 6.55314 18.447C6.29891 18.9107 5.64991 19.1443 5.16114 18.9277C4.98064 18.8523 4.82413 18.7291 4.70849 18.5714C4.59286 18.4136 4.52249 18.2273 4.50498 18.0325C4.43874 17.5375 4.68402 17.1991 5.0582 16.9422C5.22291 16.8294 5.37867 16.7578 5.37778 16.5134C5.36823 14.5905 5.36524 12.6677 5.36882 10.7449C5.36882 10.4763 5.25872 10.3698 4.99464 10.3743C4.44321 10.385 3.89089 10.3966 3.34036 10.3743C3.02526 10.3635 2.79699 10.3823 2.60542 10.7091C2.35119 11.1423 1.65474 11.2301 1.29757 10.9454C0.92249 10.6473 0.832076 10.026 1.11048 9.66887C1.50972 9.15683 1.95821 9.10133 2.44876 9.51132C2.58483 9.62501 2.69852 9.76645 2.83011 9.88729C2.84186 9.90186 2.85645 9.91389 2.87298 9.92267C2.88951 9.93145 2.90764 9.9368 2.92629 9.93839C2.94494 9.93998 2.96372 9.93778 2.98149 9.93192C2.99927 9.92606 3.01568 9.91667 3.02973 9.9043C3.08076 9.85596 3.04763 9.79867 3.02973 9.74138C2.8507 9.1631 2.03967 8.78533 1.4408 9.00376C0.794479 9.24008 0.439095 9.99919 0.691534 10.6034C1.09436 11.5684 2.1829 11.666 2.92947 10.7986C3.08792 10.6133 3.29291 10.4047 3.51134 10.5094C3.76557 10.6312 3.50328 10.8774 3.50686 11.0707L3.51313 11.0609L3.43435 11.1755C2.54544 12.1924 1.46497 12.3284 0.599331 11.5335C0.243334 11.2097 0.0290371 10.7587 0.00274 10.2782C-0.0235571 9.79764 0.140256 9.32604 0.458788 8.96526C1.08093 8.24912 2.25451 8.14707 3.00467 8.73968C3.12104 8.8292 3.22846 8.93483 3.33946 9.0324C3.44062 9.2544 3.59727 9.45313 3.59369 9.71721C3.59369 9.90162 3.69216 9.98576 3.87925 9.92937H5.04298H5.31153C5.4876 9.97548 5.67257 9.97548 5.84864 9.92937H7.90754C8.19758 9.96249 8.17072 9.75033 8.17162 9.57577C8.17609 8.66717 8.17162 7.75767 8.17162 6.84907C8.17162 6.67003 8.16088 6.48563 7.94514 6.41222C7.52351 6.26989 7.31852 5.95121 7.11084 5.56628C6.84228 5.0802 7.04549 4.30588 7.50919 3.97824C8.02302 3.61391 8.77049 3.62017 9.21002 4.01315C9.74712 4.49655 10.0533 5.57255 9.03098 6.20007C8.70962 6.39701 8.55565 6.61632 8.57087 7.01736C8.60852 7.717 8.59236 8.41849 8.52253 9.11565C8.41869 10.001 8.8806 10.5363 9.50722 11.0143C9.67462 11.2122 9.83664 11.4136 10.0112 11.6051C10.141 11.7475 10.261 11.7296 10.3451 11.5487C10.8509 11.1012 11.3567 10.6455 11.7568 10.0914C11.8463 10.0099 11.8212 9.89983 11.8212 9.79957C11.8212 7.31187 11.8212 4.82418 11.8212 2.33649C11.8199 2.11382 11.7327 1.90027 11.5778 1.7403C11.3146 1.43057 11.3352 1.05639 11.6091 0.823645C11.8624 0.607908 12.139 0.559568 12.421 0.781572C12.4906 0.832165 12.5486 0.897069 12.5911 0.971926C12.6336 1.04678 12.6596 1.12986 12.6673 1.21558C12.675 1.3013 12.6643 1.38768 12.6358 1.46892C12.6074 1.55016 12.5619 1.62438 12.5025 1.68659C12.2491 1.97932 12.2339 2.28994 12.2339 2.63727C12.2339 5.18434 12.2274 7.73141 12.2142 10.2785L12.1175 10.3904L12.0531 10.4593L11.9385 10.5694L11.8624 10.6392C11.4829 10.9875 11.1051 11.3375 10.7238 11.6839C10.491 11.8943 10.4731 12.0814 10.7479 12.2801C10.9076 12.41 11.0598 12.549 11.2036 12.6964L11.3056 12.8002H11.3003C11.3501 12.9236 11.4466 13.0224 11.5688 13.075V13.0687L11.6682 13.1645L11.6583 13.1574L11.7577 13.2549L11.7505 13.246L11.8454 13.3454H11.84C12.1384 13.6766 12.4368 14.0075 12.7352 14.3381C12.9626 14.5914 13.1891 14.7427 13.5847 14.6425C14.0914 14.5145 14.5292 14.7553 14.7556 15.1796C14.8525 15.3406 14.8978 15.5275 14.8853 15.7151C14.8728 15.9027 14.8032 16.0819 14.6858 16.2287C14.3349 16.7023 13.9079 16.8303 13.3959 16.6092C12.8838 16.3881 12.6672 15.9351 12.7934 15.3631C12.8426 15.1429 12.9205 14.9441 12.7084 14.7499C12.0952 14.1895 11.4936 13.6148 10.8876 13.0491V13.0544L10.7891 12.9586L10.799 12.9658L10.6853 12.8494Z" fill="#DC751A"/>
<path d="M6.65696 7.24658C5.39118 6.12403 5.44042 4.63356 5.94977 3.73033C6.68203 2.42964 7.912 2.10022 9.33622 2.52363C10.5411 2.8817 11.2394 4.22447 11.0254 5.5726C10.8965 6.38273 10.3854 6.92342 9.78829 7.41129C9.62357 7.47664 9.45349 7.53303 9.29415 7.60912C8.96651 7.76667 8.85641 7.63956 8.79464 7.30834C8.70512 6.82226 9.10527 6.75244 9.36576 6.56982C10.0497 6.0918 10.3281 5.34433 10.1052 4.5324C9.90555 3.81 9.21 3.27289 8.4124 3.22993C7.6148 3.18696 6.9103 3.66677 6.6122 4.4402C6.34365 5.12949 6.57102 5.95663 7.17258 6.45703C7.33192 6.58862 7.5217 6.68351 7.68552 6.8151C7.94422 7.01562 7.91289 7.29492 7.818 7.55004C7.71685 7.81859 7.48947 7.64403 7.31402 7.63956L6.65696 7.24658Z" fill="#DC751A"/>
<path d="M12.668 13.6884C13.2051 13.4377 13.7718 13.4717 14.3348 13.5165C15.0035 13.5702 15.7796 14.2899 15.9282 15.0311C16.1073 15.912 15.9775 16.7427 15.2336 17.3434C14.5085 17.9288 13.6858 17.97 12.8336 17.6397C12.3135 17.4356 12.0387 16.988 11.7666 16.5413C11.5525 15.9787 11.558 15.3562 11.7818 14.7975C11.8265 14.6793 11.8507 14.511 12.0172 14.5075C12.164 14.5075 12.2383 14.6417 12.3252 14.742C12.4388 14.8718 12.4048 15.0106 12.3717 15.1627C12.2902 15.5298 12.2553 15.8995 12.4084 16.2575C12.5498 16.5725 12.7926 16.831 13.0982 16.9916C13.4038 17.1523 13.7544 17.2059 14.094 17.1438C14.4267 17.0845 14.729 16.9129 14.9505 16.6576C15.1719 16.4023 15.299 16.0788 15.3106 15.741C15.3356 14.973 14.8862 14.3714 14.1737 14.1816C13.872 14.1011 13.5847 14.1673 13.2893 14.1906C12.8694 14.2246 12.6474 14.0348 12.668 13.6884Z" fill="#DC751A"/>
<path d="M7.81005 17.6341C7.80515 17.6466 7.8039 17.6602 7.80644 17.6734C7.80897 17.6865 7.81519 17.6987 7.82437 17.7084L7.83601 17.977C7.82974 18.037 7.82258 18.0969 7.81631 18.156C7.77454 18.3279 7.73306 18.4998 7.69188 18.6716L7.69905 18.6618C7.68293 18.7021 7.66772 18.7415 7.6516 18.7809C7.10017 19.9768 5.74309 20.3295 4.89625 20.0046C4.0906 19.6966 3.58124 19.1219 3.43801 18.2867C3.28852 17.4121 3.58124 16.6629 4.31439 16.1383C4.57757 15.9494 4.81837 15.6522 5.21583 15.7623C5.28386 16.1607 5.17197 16.4319 4.80942 16.6897C4.12998 17.1731 3.97333 17.9537 4.32513 18.6161C4.45854 18.8757 4.66882 19.0877 4.92726 19.2233C5.1857 19.3588 5.47968 19.4113 5.76905 19.3735C6.31421 19.3162 6.90413 18.8319 7.04646 18.3243C7.21118 17.7344 6.94799 17.0594 6.38672 16.653C6.13607 16.474 5.84961 16.2672 6.04834 15.9369C6.22738 15.6379 6.49593 15.927 6.7242 15.9619L6.71167 15.9503L6.83073 16.0219L7.45735 16.6414L7.52091 16.7622L7.50837 16.7497L7.64176 16.9941C7.69726 17.2071 7.75365 17.4202 7.81005 17.6341Z" fill="#DC751A"/>
<path d="M8.7312 20.933C9.2325 20.8704 9.81078 21.3242 10.0552 21.9732C10.4249 22.9525 10.0095 23.9363 9.05704 24.3383C8.61305 24.5238 8.11427 24.5293 7.66631 24.3535C7.21836 24.1778 6.8564 23.8345 6.65708 23.3965C6.19427 22.3922 6.7466 21.189 7.82081 20.8569C8.13501 21.1658 7.92554 21.335 7.66147 21.5131C7.41444 21.6809 7.22853 21.9243 7.13168 22.2068C7.03483 22.4893 7.03226 22.7956 7.12436 23.0797C7.3034 23.632 7.7286 23.9247 8.34628 23.9193C8.94604 23.914 9.40437 23.5935 9.5664 23.0653C9.75707 22.4468 9.56103 21.8703 9.0096 21.5158C8.78491 21.3699 8.6578 21.2087 8.7312 20.933Z" fill="#DC751A"/>
<path d="M11.2159 2.3464C10.9304 2.04741 10.7218 1.70635 10.7173 1.28204C10.7195 1.01138 10.8079 0.74847 10.9697 0.531477C11.1315 0.314483 11.3582 0.154704 11.617 0.075341C12.2203 -0.111751 12.77 0.0547522 13.0824 0.517558C13.2447 0.752671 13.3267 1.03393 13.3162 1.31944C13.3058 1.60496 13.2033 1.87944 13.0242 2.10202C12.8827 2.27389 12.735 2.44397 12.5032 2.50395L12.4065 2.38221V2.37684C12.4352 2.10828 12.6357 1.93641 12.7592 1.72157C12.983 1.33038 12.9302 0.998267 12.5963 0.688536C12.4589 0.551021 12.2773 0.466586 12.0836 0.4502C11.8899 0.433815 11.6967 0.486536 11.5382 0.599018C11.1604 0.878313 11.0548 1.24086 11.2499 1.64548C11.3198 1.7905 11.429 1.91403 11.514 2.05368C11.5991 2.19333 11.6832 2.34193 11.5552 2.45919C11.4272 2.57646 11.3413 2.36251 11.2159 2.3464Z" fill="#DC751A"/>
<path d="M10.6855 12.8496L10.7947 12.957L10.6855 12.8496Z" fill="#DC751A"/>
<path d="M10.7818 12.9497L10.8802 13.0455L10.7818 12.9497Z" fill="#DC751A"/>
<path d="M11.6593 13.1619L11.5599 13.0662L11.6593 13.1619Z" fill="#DC751A"/>
<path d="M9.63975 12.8817L9.706 12.8154L9.63975 12.8817Z" fill="#DC751A"/>
<path d="M11.8365 13.3428L11.7416 13.2434L11.8365 13.3428Z" fill="#DC751A"/>
<path d="M9.08479 13.4179L9.16894 13.3391L9.08479 13.4179Z" fill="#DC751A"/>
<path d="M3.43414 11.1755L3.50754 11.0654L3.43414 11.1755Z" fill="#DC751A"/>
<path d="M12.4068 2.38037L12.5034 2.50211L12.4068 2.38037Z" fill="#DC751A"/>
<path d="M8.63613 10.7996C8.66836 10.8327 8.69969 10.8667 8.73102 10.8998C8.69969 10.8667 8.66836 10.8327 8.63613 10.7996Z" fill="#DC751A"/>
<path d="M6.83053 16.0184L6.71147 15.9468L6.83053 16.0184Z" fill="#DC751A"/>
<path d="M8.54936 10.7065L8.64603 10.8077L8.54936 10.7065Z" fill="#DC751A"/>
<path d="M7.52195 16.7595L7.46286 16.636L7.52195 16.7595Z" fill="#DC751A"/>
<path d="M11.8607 10.6384L11.9368 10.5686L11.8607 10.6384Z" fill="#DC751A"/>
<path d="M7.65148 18.7846C7.66759 18.7452 7.68281 18.7058 7.69892 18.6655C7.68281 18.7022 7.66759 18.7416 7.65148 18.7846Z" fill="#DC751A"/>
<path d="M12.0513 10.4593L12.1157 10.3904L12.0513 10.4593Z" fill="#DC751A"/>
<path d="M11.7486 13.2524L11.6492 13.1548L11.7486 13.2524Z" fill="#DC751A"/>
</svg>
