<svg width="216" height="40" viewBox="0 0 216 40" fill="none" xmlns="http://www.w3.org/2000/svg">
<path d="M0 16.896C0 14.837 0.411803 13.0445 1.23541 11.5184C2.05901 9.96804 3.19753 8.76897 4.65095 7.92114C6.12859 7.07331 7.81213 6.6494 9.70158 6.6494C12.1482 6.6494 14.1587 7.24288 15.7333 8.42984C17.332 9.6168 18.3858 11.264 18.8945 13.3715H15.3336C14.9945 12.1603 14.3283 11.2035 13.3351 10.501C12.3662 9.79848 11.155 9.44723 9.70158 9.44723C7.81213 9.44723 6.28604 10.1013 5.12331 11.4094C3.96057 12.6932 3.3792 14.5221 3.3792 16.896C3.3792 19.2942 3.96057 21.1473 5.12331 22.4553C6.28604 23.7634 7.81213 24.4175 9.70158 24.4175C11.155 24.4175 12.3662 24.0783 13.3351 23.4001C14.3041 22.7218 14.9702 21.7529 15.3336 20.4932H18.8945C18.3615 22.528 17.2957 24.1631 15.6969 25.3985C14.0982 26.6097 12.0997 27.2153 9.70158 27.2153C7.81213 27.2153 6.12859 26.7914 4.65095 25.9436C3.19753 25.0957 2.05901 23.8967 1.23541 22.3463C0.411803 20.796 0 18.9793 0 16.896Z" fill="#2E2E2D"/>
<path d="M33.1897 6.61306C34.6915 6.61306 36.048 6.94008 37.2592 7.59412C38.4704 8.22394 39.4151 9.18077 40.0934 10.4646C40.7959 11.7485 41.1471 13.3109 41.1471 15.1519V26.8883H37.8769V15.6243C37.8769 13.6379 37.3803 12.1239 36.3872 11.0823C35.394 10.0165 34.0375 9.48357 32.3176 9.48357C30.5735 9.48357 29.1806 10.0286 28.139 11.1187C27.1216 12.2087 26.6129 13.7954 26.6129 15.8786V26.8883H23.3064V0H26.6129V9.81059C27.267 8.79319 28.1632 8.00592 29.3018 7.44878C30.4645 6.89164 31.7605 6.61306 33.1897 6.61306Z" fill="#2E2E2D"/>
<path d="M45.3129 16.8597C45.3129 14.8249 45.7247 13.0445 46.5483 11.5184C47.372 9.96804 48.4984 8.76897 49.9275 7.92114C51.381 7.07331 52.9918 6.6494 54.7602 6.6494C56.5043 6.6494 58.0183 7.02487 59.3021 7.7758C60.586 8.52673 61.5428 9.47146 62.1726 10.61V6.97642H65.5155V26.8883H62.1726V23.1821C61.5186 24.3448 60.5375 25.3137 59.2294 26.0889C57.9456 26.8398 56.4437 27.2153 54.7238 27.2153C52.9555 27.2153 51.3567 26.7793 49.9275 25.9072C48.4984 25.0352 47.372 23.8119 46.5483 22.2373C45.7247 20.6628 45.3129 18.8702 45.3129 16.8597ZM62.1726 16.896C62.1726 15.3941 61.8698 14.0861 61.2642 12.9718C60.6586 11.8575 59.835 11.0097 58.7934 10.4283C57.776 9.8227 56.6496 9.51991 55.4142 9.51991C54.1788 9.51991 53.0524 9.81059 52.035 10.392C51.0176 10.9733 50.2061 11.8212 49.6005 12.9354C48.9949 14.0497 48.6921 15.3578 48.6921 16.8597C48.6921 18.3858 48.9949 19.7181 49.6005 20.8566C50.2061 21.9709 51.0176 22.8308 52.035 23.4364C53.0524 24.0178 54.1788 24.3085 55.4142 24.3085C56.6496 24.3085 57.776 24.0178 58.7934 23.4364C59.835 22.8308 60.6586 21.9709 61.2642 20.8566C61.8698 19.7181 62.1726 18.3979 62.1726 16.896Z" fill="#2E2E2D"/>
<path d="M74.4097 10.2103C74.9911 9.07176 75.8147 8.1876 76.8806 7.55779C77.9706 6.92797 79.2908 6.61306 80.8411 6.61306V10.0286H79.9691C76.2628 10.0286 74.4097 12.0392 74.4097 16.0603V26.8883H71.1032V6.97642H74.4097V10.2103Z" fill="#2E2E2D"/>
<path d="M92.8699 6.6494C94.5897 6.6494 96.0916 7.02487 97.3755 7.7758C98.6836 8.52673 99.6525 9.47146 100.282 10.61V6.97642H103.625V27.3243C103.625 29.1411 103.238 30.752 102.462 32.1569C101.687 33.5861 100.573 34.7004 99.1196 35.4998C97.6904 36.2992 96.019 36.6989 94.1053 36.6989C91.4891 36.6989 89.309 36.0812 87.5649 34.8458C85.8208 33.6103 84.7913 31.9268 84.4764 29.7951H87.7466C88.1099 31.0063 88.8609 31.9753 89.9994 32.702C91.1379 33.4529 92.5065 33.8284 94.1053 33.8284C95.9221 33.8284 97.3997 33.2591 98.5382 32.1206C99.7009 30.9821 100.282 29.3833 100.282 27.3243V23.1457C99.6283 24.3085 98.6593 25.2774 97.3755 26.0526C96.0916 26.8277 94.5897 27.2153 92.8699 27.2153C91.1015 27.2153 89.4907 26.7793 88.0373 25.9072C86.6081 25.0352 85.4817 23.8119 84.6581 22.2373C83.8344 20.6628 83.4226 18.8702 83.4226 16.8597C83.4226 14.8249 83.8344 13.0445 84.6581 11.5184C85.4817 9.96804 86.6081 8.76897 88.0373 7.92114C89.4907 7.07331 91.1015 6.6494 92.8699 6.6494ZM100.282 16.896C100.282 15.3941 99.9795 14.0861 99.3739 12.9718C98.7683 11.8575 97.9447 11.0097 96.9031 10.4283C95.8857 9.8227 94.7593 9.51991 93.5239 9.51991C92.2885 9.51991 91.1621 9.81059 90.1447 10.392C89.1273 10.9733 88.3158 11.8212 87.7102 12.9354C87.1046 14.0497 86.8018 15.3578 86.8018 16.8597C86.8018 18.3858 87.1046 19.7181 87.7102 20.8566C88.3158 21.9709 89.1273 22.8308 90.1447 23.4364C91.1621 24.0178 92.2885 24.3085 93.5239 24.3085C94.7593 24.3085 95.8857 24.0178 96.9031 23.4364C97.9447 22.8308 98.7683 21.9709 99.3739 20.8566C99.9795 19.7181 100.282 18.3979 100.282 16.896Z" fill="#2E2E2D"/>
<path d="M127.381 16.1693C127.381 16.7991 127.344 17.4653 127.272 18.1678H111.357C111.478 20.1299 112.144 21.6681 113.355 22.7824C114.591 23.8724 116.08 24.4175 117.824 24.4175C119.254 24.4175 120.441 24.0904 121.385 23.4364C122.354 22.7581 123.033 21.8619 123.42 20.7476H126.981C126.448 22.6612 125.382 24.2237 123.783 25.4349C122.185 26.6218 120.198 27.2153 117.824 27.2153C115.935 27.2153 114.239 26.7914 112.737 25.9436C111.26 25.0957 110.097 23.8967 109.249 22.3463C108.401 20.7718 107.978 18.955 107.978 16.896C107.978 14.837 108.389 13.0323 109.213 11.482C110.037 9.93171 111.187 8.74475 112.665 7.92114C114.167 7.07331 115.887 6.6494 117.824 6.6494C119.714 6.6494 121.385 7.0612 122.839 7.88481C124.292 8.70841 125.406 9.84692 126.182 11.3003C126.981 12.7295 127.381 14.3525 127.381 16.1693ZM123.965 15.4789C123.965 14.2193 123.687 13.1413 123.129 12.2451C122.572 11.3246 121.809 10.6342 120.84 10.1739C119.896 9.68947 118.842 9.44723 117.679 9.44723C116.008 9.44723 114.578 9.98016 113.391 11.046C112.229 12.1118 111.563 13.5895 111.393 15.4789H123.965Z" fill="#2E2E2D"/>
<path d="M157.434 1.7441V26.8883H154.128V8.13916L145.771 26.8883H143.445L135.052 8.10282V26.8883H131.745V1.7441H135.306L144.608 22.528L153.91 1.7441H157.434Z" fill="#DC751A"/>
<path d="M174.524 27.1426C172.174 27.1426 170.031 26.5976 168.093 25.5075C166.155 24.3932 164.617 22.855 163.478 20.8929C162.364 18.9066 161.807 16.678 161.807 14.2072C161.807 11.7364 162.364 9.5199 163.478 7.55779C164.617 5.57145 166.155 4.03324 168.093 2.94318C170.031 1.82889 172.174 1.27174 174.524 1.27174C176.898 1.27174 179.054 1.82889 180.992 2.94318C182.93 4.03324 184.456 5.55933 185.57 7.52145C186.684 9.48357 187.241 11.7121 187.241 14.2072C187.241 16.7022 186.684 18.9308 185.57 20.8929C184.456 22.855 182.93 24.3932 180.992 25.5075C179.054 26.5976 176.898 27.1426 174.524 27.1426ZM174.524 24.2721C176.292 24.2721 177.879 23.8603 179.284 23.0367C180.713 22.2131 181.827 21.0383 182.627 19.5122C183.45 17.9861 183.862 16.2178 183.862 14.2072C183.862 12.1724 183.45 10.4041 182.627 8.9022C181.827 7.37611 180.725 6.20126 179.32 5.37766C177.915 4.55405 176.317 4.14225 174.524 4.14225C172.731 4.14225 171.133 4.55405 169.728 5.37766C168.323 6.20126 167.208 7.37611 166.385 8.9022C165.585 10.4041 165.186 12.1724 165.186 14.2072C165.186 16.2178 165.585 17.9861 166.385 19.5122C167.208 21.0383 168.323 22.2131 169.728 23.0367C171.157 23.8603 172.756 24.2721 174.524 24.2721Z" fill="#DC751A"/>
<path d="M199.491 1.56243C202.253 1.56243 204.639 2.08324 206.649 3.12485C208.684 4.14225 210.235 5.60778 211.3 7.52145C212.39 9.43512 212.935 11.6879 212.935 14.2799C212.935 16.8718 212.39 19.1246 211.3 21.0383C210.235 22.9277 208.684 24.3811 206.649 25.3985C204.639 26.3917 202.253 26.8883 199.491 26.8883H191.607V1.56243H199.491ZM199.491 24.1631C202.762 24.1631 205.257 23.3032 206.976 21.5833C208.696 19.8392 209.556 17.4047 209.556 14.2799C209.556 11.1308 208.684 8.67208 206.94 6.90375C205.22 5.13542 202.737 4.25126 199.491 4.25126H194.913V24.1631H199.491Z" fill="#DC751A"/>
<path d="M118.949 31.8947C119.847 31.8947 120.519 32.0668 120.967 32.4108C121.414 32.7549 121.638 33.29 121.638 34.016C121.638 34.3876 121.577 34.7179 121.457 35.007C121.34 35.2926 121.163 35.5334 120.925 35.7296C120.688 35.9257 120.39 36.0736 120.033 36.1734C119.678 36.2732 119.263 36.3231 118.789 36.3231H117.627V39.4405H117.096V31.8947H118.949ZM118.892 32.3644H117.627V35.8534H118.737C119.226 35.8534 119.645 35.7984 119.996 35.6883C120.347 35.5747 120.617 35.3855 120.807 35.1205C120.996 34.8556 121.091 34.4943 121.091 34.0366C121.091 33.4551 120.912 33.0319 120.554 32.767C120.196 32.4986 119.642 32.3644 118.892 32.3644Z" fill="#DC751A"/>
<path d="M130.156 35.6573C130.156 36.2319 130.085 36.7566 129.944 37.2315C129.803 37.7063 129.592 38.1158 129.309 38.4599C129.027 38.804 128.675 39.0706 128.251 39.2599C127.832 39.4491 127.341 39.5437 126.78 39.5437C126.216 39.5437 125.722 39.4491 125.299 39.2599C124.876 39.0706 124.523 38.804 124.241 38.4599C123.962 38.1123 123.752 37.7012 123.611 37.2263C123.47 36.748 123.4 36.2216 123.4 35.647C123.4 34.8831 123.529 34.2104 123.787 33.6289C124.048 33.0474 124.432 32.5932 124.938 32.2663C125.447 31.9394 126.075 31.776 126.822 31.776C127.537 31.776 128.143 31.9326 128.638 32.2457C129.137 32.5554 129.514 33.0009 129.769 33.5825C130.027 34.1605 130.156 34.8521 130.156 35.6573ZM123.957 35.6521C123.957 36.3265 124.059 36.9218 124.262 37.4379C124.465 37.9506 124.776 38.3515 125.196 38.6405C125.616 38.9296 126.146 39.0741 126.786 39.0741C127.432 39.0741 127.964 38.9313 128.38 38.6457C128.797 38.3601 129.105 37.961 129.304 37.4483C129.504 36.9356 129.604 36.3386 129.604 35.6573C129.604 34.5803 129.368 33.7442 128.897 33.1489C128.429 32.5536 127.737 32.256 126.822 32.256C126.178 32.256 125.643 32.3988 125.217 32.6844C124.793 32.97 124.477 33.3674 124.267 33.8766C124.06 34.3859 123.957 34.9777 123.957 35.6521Z" fill="#DC751A"/>
<path d="M140.532 31.8947L138.473 39.4405H137.957L136.341 33.7425C136.303 33.622 136.269 33.5085 136.238 33.4018C136.21 33.2917 136.183 33.1885 136.155 33.0921C136.131 32.9923 136.107 32.8994 136.083 32.8134C136.062 32.724 136.045 32.6431 136.031 32.5708C136.018 32.6431 136.002 32.7205 135.985 32.8031C135.971 32.8822 135.954 32.9648 135.933 33.0508C135.913 33.1369 135.89 33.2263 135.866 33.3192C135.842 33.4121 135.816 33.5085 135.789 33.6083L134.179 39.4405H133.657L131.624 31.8947H132.171L133.59 37.216C133.628 37.3571 133.662 37.4913 133.693 37.6186C133.728 37.7459 133.759 37.8698 133.786 37.9902C133.814 38.1072 133.84 38.2225 133.864 38.336C133.891 38.4461 133.915 38.5579 133.936 38.6715C133.96 38.5579 133.984 38.4427 134.008 38.3257C134.032 38.2087 134.058 38.09 134.086 37.9696C134.117 37.8491 134.148 37.7253 134.179 37.5979C134.213 37.4672 134.251 37.3313 134.292 37.1902L135.773 31.8947H136.305L137.843 37.2212C137.884 37.3691 137.922 37.5085 137.957 37.6392C137.991 37.77 138.022 37.8956 138.05 38.016C138.077 38.133 138.103 38.2483 138.127 38.3618C138.151 38.4719 138.175 38.5837 138.199 38.6973C138.227 38.5425 138.254 38.3911 138.282 38.2431C138.313 38.0917 138.349 37.9334 138.39 37.7683C138.431 37.6031 138.478 37.4225 138.53 37.2263L139.98 31.8947H140.532Z" fill="#DC751A"/>
<path d="M146.506 39.4405H142.382V31.8947H146.506V32.3747H142.914V35.2341H146.305V35.7141H142.914V38.9605H146.506V39.4405Z" fill="#DC751A"/>
<path d="M150.585 31.8947C151.184 31.8947 151.683 31.9601 152.082 32.0908C152.485 32.2216 152.787 32.4366 152.99 32.736C153.193 33.0354 153.295 33.4397 153.295 33.9489C153.295 34.3308 153.224 34.6594 153.083 34.9347C152.946 35.2065 152.755 35.4302 152.51 35.6057C152.266 35.7812 151.984 35.9154 151.664 36.0083L153.734 39.4405H153.104L151.158 36.1579H149.285V39.4405H148.753V31.8947H150.585ZM150.534 32.3644H149.285V35.6883H150.787C151.403 35.6883 151.883 35.5403 152.227 35.2444C152.574 34.9485 152.748 34.5235 152.748 33.9696C152.748 33.3605 152.566 32.9407 152.201 32.7102C151.836 32.4797 151.28 32.3644 150.534 32.3644Z" fill="#DC751A"/>
<path d="M160.814 39.4405H160.277V32.3747H157.831V31.8947H163.26V32.3747H160.814V39.4405Z" fill="#DC751A"/>
<path d="M171.262 35.6573C171.262 36.2319 171.192 36.7566 171.051 37.2315C170.91 37.7063 170.698 38.1158 170.416 38.4599C170.134 38.804 169.781 39.0706 169.358 39.2599C168.938 39.4491 168.448 39.5437 167.887 39.5437C167.323 39.5437 166.829 39.4491 166.406 39.2599C165.982 39.0706 165.63 38.804 165.348 38.4599C165.069 38.1123 164.859 37.7012 164.718 37.2263C164.577 36.748 164.506 36.2216 164.506 35.647C164.506 34.8831 164.635 34.2104 164.893 33.6289C165.155 33.0474 165.539 32.5932 166.044 32.2663C166.554 31.9394 167.182 31.776 167.928 31.776C168.644 31.776 169.25 31.9326 169.745 32.2457C170.244 32.5554 170.621 33.0009 170.875 33.5825C171.133 34.1605 171.262 34.8521 171.262 35.6573ZM165.064 35.6521C165.064 36.3265 165.165 36.9218 165.368 37.4379C165.571 37.9506 165.883 38.3515 166.302 38.6405C166.722 38.9296 167.252 39.0741 167.892 39.0741C168.539 39.0741 169.071 38.9313 169.487 38.6457C169.903 38.3601 170.211 37.961 170.411 37.4483C170.61 36.9356 170.71 36.3386 170.71 35.6573C170.71 34.5803 170.475 33.7442 170.003 33.1489C169.535 32.5536 168.844 32.256 167.928 32.256C167.285 32.256 166.75 32.3988 166.323 32.6844C165.9 32.97 165.583 33.3674 165.373 33.8766C165.167 34.3859 165.064 34.9777 165.064 35.6521Z" fill="#DC751A"/>
<path d="M178.652 31.8947C179.55 31.8947 180.223 32.0668 180.67 32.4108C181.118 32.7549 181.341 33.29 181.341 34.016C181.341 34.3876 181.281 34.7179 181.161 35.007C181.044 35.2926 180.867 35.5334 180.629 35.7296C180.392 35.9257 180.094 36.0736 179.736 36.1734C179.382 36.2732 178.967 36.3231 178.492 36.3231H177.331V39.4405H176.8V31.8947H178.652ZM178.596 32.3644H177.331V35.8534H178.441C178.929 35.8534 179.349 35.7984 179.7 35.6883C180.051 35.5747 180.321 35.3855 180.51 35.1205C180.7 34.8556 180.794 34.4943 180.794 34.0366C180.794 33.4551 180.615 33.0319 180.258 32.767C179.9 32.4986 179.346 32.3644 178.596 32.3644Z" fill="#DC751A"/>
<path d="M187.635 39.4405H183.511V31.8947H187.635V32.3747H184.043V35.2341H187.434V35.7141H184.043V38.9605H187.635V39.4405Z" fill="#DC751A"/>
<path d="M196.231 35.6573C196.231 36.2319 196.16 36.7566 196.019 37.2315C195.878 37.7063 195.666 38.1158 195.384 38.4599C195.102 38.804 194.749 39.0706 194.326 39.2599C193.906 39.4491 193.416 39.5437 192.855 39.5437C192.291 39.5437 191.797 39.4491 191.374 39.2599C190.951 39.0706 190.598 38.804 190.316 38.4599C190.037 38.1123 189.827 37.7012 189.686 37.2263C189.545 36.748 189.475 36.2216 189.475 35.647C189.475 34.8831 189.604 34.2104 189.862 33.6289C190.123 33.0474 190.507 32.5932 191.013 32.2663C191.522 31.9394 192.15 31.776 192.897 31.776C193.612 31.776 194.218 31.9326 194.713 32.2457C195.212 32.5554 195.589 33.0009 195.844 33.5825C196.102 34.1605 196.231 34.8521 196.231 35.6573ZM190.032 35.6521C190.032 36.3265 190.134 36.9218 190.337 37.4379C190.54 37.9506 190.851 38.3515 191.271 38.6405C191.691 38.9296 192.22 39.0741 192.86 39.0741C193.507 39.0741 194.039 38.9313 194.455 38.6457C194.872 38.3601 195.18 37.961 195.379 37.4483C195.579 36.9356 195.679 36.3386 195.679 35.6573C195.679 34.5803 195.443 33.7442 194.971 33.1489C194.503 32.5536 193.812 32.256 192.897 32.256C192.253 32.256 191.718 32.3988 191.291 32.6844C190.868 32.97 190.552 33.3674 190.342 33.8766C190.135 34.3859 190.032 34.9777 190.032 35.6521Z" fill="#DC751A"/>
<path d="M200.346 31.8947C201.244 31.8947 201.917 32.0668 202.364 32.4108C202.812 32.7549 203.035 33.29 203.035 34.016C203.035 34.3876 202.975 34.7179 202.855 35.007C202.738 35.2926 202.561 35.5334 202.323 35.7296C202.086 35.9257 201.788 36.0736 201.43 36.1734C201.076 36.2732 200.661 36.3231 200.186 36.3231H199.025V39.4405H198.493V31.8947H200.346ZM200.29 32.3644H199.025V35.8534H200.135C200.623 35.8534 201.043 35.7984 201.394 35.6883C201.745 35.5747 202.015 35.3855 202.204 35.1205C202.394 34.8556 202.488 34.4943 202.488 34.0366C202.488 33.4551 202.309 33.0319 201.952 32.767C201.594 32.4986 201.04 32.3644 200.29 32.3644Z" fill="#DC751A"/>
<path d="M205.205 39.4405V31.8947H205.737V38.9554H209.329V39.4405H205.205Z" fill="#DC751A"/>
<path d="M215.277 39.4405H211.153V31.8947H215.277V32.3747H211.685V35.2341H215.076V35.7141H211.685V38.9605H215.277V39.4405Z" fill="#DC751A"/>
</svg>
