<svg width="247" height="238" viewBox="0 0 247 238" fill="none" xmlns="http://www.w3.org/2000/svg">
<path fill-rule="evenodd" clip-rule="evenodd" d="M151.177 28.2437L205.357 1.89929L204.482 0.100647L149.662 26.7563L127.053 75.4923L85.4194 133.177V172.262L111.471 179.414L127.105 191.139L144.5 231.893L146.339 231.107L128.734 189.861L112.367 177.586L87.4194 170.737V133.823L128.786 76.5076L151.177 28.2437Z" fill="#2E2E2D"/>
<path d="M82.2114 180.584C87.0671 180.584 91.0034 176.648 91.0034 171.792C91.0034 166.936 87.0671 163 82.2114 163C77.3557 163 73.4194 166.936 73.4194 171.792C73.4194 176.648 77.3557 180.584 82.2114 180.584Z" fill="#4EAD2B"/>
<path d="M85.2327 166.936L79.9193 172.356H82.3726L78.6282 177.47L85.0736 171.363L82.4813 171.349L85.2327 166.936Z" fill="white"/>
<path d="M130.211 85.584C135.067 85.584 139.003 81.6477 139.003 76.792C139.003 71.9363 135.067 68 130.211 68C125.356 68 121.419 71.9363 121.419 76.792C121.419 81.6477 125.356 85.584 130.211 85.584Z" fill="#4EAD2B"/>
<path d="M133.233 71.9357L127.919 77.3559H130.373L126.628 82.47L133.074 76.3629L130.481 76.3488L133.233 71.9357Z" fill="white"/>
<path fill-rule="evenodd" clip-rule="evenodd" d="M205.328 0.582825L219.387 31.2106L226.395 77.2637L246.47 136.988L234.265 176.148L146.455 231.844L145.384 230.156L232.574 174.852L244.368 137.012L224.444 77.7363L217.452 31.7894L203.511 1.41716L205.328 0.582825Z" fill="#666766" fill-opacity="0.5"/>
<g filter="url(#filter0_d_3_25038)">
<path d="M4.41943 123C4.41943 121.895 5.31486 121 6.41943 121H172.184C173.289 121 174.184 121.895 174.184 123V151.118C174.184 152.222 173.289 153.118 172.184 153.118H6.41944C5.31487 153.118 4.41943 152.222 4.41943 151.118V123Z" fill="white"/>
</g>
<path d="M75.537 155.412C72.7841 153.576 66.7429 153.118 64.0664 153.118H98.4782C96.5664 153.5 92.0546 154.494 89.3017 155.412C86.5488 156.329 83.5664 158.853 82.4193 160L75.537 155.412Z" fill="white"/>
<path d="M33.8636 141.176H34.7836V133.946H32.9036V134.776H33.8636V141.176Z" fill="#534B4A"/>
<path d="M36.2367 141.096H41.0467V140.336H37.6067C38.8967 139.286 40.8367 137.756 40.8367 135.956C40.8367 134.616 39.9567 133.816 38.5967 133.816C37.2967 133.816 36.3267 134.616 36.2667 136.156H37.1467C37.1867 135.246 37.6667 134.596 38.6067 134.596C39.5867 134.596 39.9367 135.196 39.9367 135.996C39.9367 137.476 38.1367 138.916 36.2367 140.446V141.096Z" fill="#534B4A"/>
<path d="M45.0847 141.176H45.9947V136.446H47.1447V135.696H45.9947V135.306C45.9947 134.596 46.2647 134.296 47.0847 134.296V133.536C45.6847 133.536 45.0847 134.086 45.0847 135.306V135.696H44.3747V136.446H45.0847V141.176Z" fill="#534B4A"/>
<path d="M53.0657 135.696H52.1557V138.706C52.1557 139.886 51.5257 140.466 50.5857 140.466C49.6657 140.466 49.0557 139.896 49.0557 138.786V135.696H48.1557V138.906C48.1557 140.476 49.1457 141.256 50.4057 141.256C51.1357 141.256 51.8057 140.936 52.1557 140.366V141.176H53.0657V135.696Z" fill="#534B4A"/>
<path d="M58.6122 141.176H59.5122V137.946C59.5122 136.376 58.5422 135.596 57.2722 135.596C56.5322 135.596 55.8722 135.906 55.5122 136.476V135.696H54.6022V141.176H55.5122V138.146C55.5122 136.966 56.1522 136.386 57.0822 136.386C58.0022 136.386 58.6122 136.956 58.6122 138.076V141.176Z" fill="#534B4A"/>
<path d="M68.3447 141.176H69.3047L66.7947 134.246H65.7447L63.2247 141.176H64.1847L64.7447 139.626H67.7847L68.3447 141.176ZM67.5247 138.886H65.0047L66.2647 135.366L67.5247 138.886Z" fill="#534B4A"/>
<path d="M78.3129 141.176H79.2129V137.946C79.2129 136.376 78.2429 135.596 76.9929 135.596C76.1529 135.596 75.3729 136.026 75.0529 136.816C74.6929 135.996 73.9429 135.596 73.0429 135.596C72.3229 135.596 71.6729 135.906 71.3129 136.486V135.696H70.4029V141.176H71.3129V138.156C71.3129 136.976 71.9429 136.386 72.8629 136.386C73.7629 136.386 74.3629 136.956 74.3629 138.076V141.176H75.2629V138.156C75.2629 136.976 75.8929 136.386 76.8129 136.386C77.7129 136.386 78.3129 136.956 78.3129 138.076V141.176Z" fill="#534B4A"/>
<path d="M83.0357 136.376C83.9757 136.376 84.7757 136.966 84.7657 138.036H81.3057C81.4057 136.966 82.1457 136.376 83.0357 136.376ZM85.5957 139.486H84.6157C84.4157 140.076 83.8957 140.496 83.0757 140.496C82.1457 140.496 81.3657 139.886 81.2957 138.776H85.6757C85.6957 138.586 85.7057 138.426 85.7057 138.226C85.7057 136.726 84.6657 135.606 83.0757 135.606C81.4757 135.606 80.3657 136.696 80.3657 138.426C80.3657 140.166 81.5157 141.266 83.0757 141.266C84.4357 141.266 85.3157 140.486 85.5957 139.486Z" fill="#534B4A"/>
<path d="M90.9168 141.176H91.8168V137.946C91.8168 136.376 90.8468 135.596 89.5768 135.596C88.8368 135.596 88.1768 135.906 87.8168 136.476V135.696H86.9068V141.176H87.8168V138.146C87.8168 136.966 88.4568 136.386 89.3868 136.386C90.3068 136.386 90.9168 136.956 90.9168 138.076V141.176Z" fill="#534B4A"/>
<path d="M93.3033 141.176H94.2133V135.696H93.3033V141.176ZM93.7733 134.806C94.1033 134.806 94.3733 134.536 94.3733 134.186C94.3733 133.836 94.1033 133.566 93.7733 133.566C93.4233 133.566 93.1533 133.836 93.1533 134.186C93.1533 134.536 93.4233 134.806 93.7733 134.806Z" fill="#534B4A"/>
<path d="M95.9643 139.676C95.9643 140.776 96.5143 141.176 97.4843 141.176H98.3043V140.406H97.6343C97.0743 140.406 96.8743 140.216 96.8743 139.676V136.446H98.3043V135.696H96.8743V134.316H95.9643V135.696H95.2543V136.446H95.9643V139.676Z" fill="#534B4A"/>
<path d="M99.4068 141.176H100.317V135.696H99.4068V141.176ZM99.8768 134.806C100.207 134.806 100.477 134.536 100.477 134.186C100.477 133.836 100.207 133.566 99.8768 133.566C99.5268 133.566 99.2569 133.836 99.2569 134.186C99.2569 134.536 99.5268 134.806 99.8768 134.806Z" fill="#534B4A"/>
<path d="M104.198 136.376C105.138 136.376 105.938 136.966 105.928 138.036H102.468C102.568 136.966 103.308 136.376 104.198 136.376ZM106.758 139.486H105.778C105.578 140.076 105.058 140.496 104.238 140.496C103.308 140.496 102.528 139.886 102.458 138.776H106.838C106.858 138.586 106.868 138.426 106.868 138.226C106.868 136.726 105.828 135.606 104.238 135.606C102.638 135.606 101.528 136.696 101.528 138.426C101.528 140.166 102.678 141.266 104.238 141.266C105.598 141.266 106.478 140.486 106.758 139.486Z" fill="#534B4A"/>
<path d="M112.009 139.686C111.969 137.726 108.789 138.436 108.789 137.136C108.789 136.696 109.189 136.376 109.859 136.376C110.589 136.376 111.009 136.776 111.049 137.326H111.959C111.899 136.256 111.099 135.606 109.889 135.606C108.669 135.606 107.879 136.296 107.879 137.136C107.879 139.176 111.119 138.466 111.119 139.686C111.119 140.136 110.719 140.496 109.999 140.496C109.229 140.496 108.759 140.096 108.709 139.566H107.769C107.829 140.566 108.729 141.266 110.009 141.266C111.219 141.266 112.009 140.586 112.009 139.686Z" fill="#534B4A"/>
<path d="M119.97 141.176H120.87V137.946C120.87 136.376 119.9 135.596 118.63 135.596C117.89 135.596 117.23 135.906 116.87 136.476V135.696H115.96V141.176H116.87V138.146C116.87 136.966 117.51 136.386 118.44 136.386C119.36 136.386 119.97 136.956 119.97 138.076V141.176Z" fill="#534B4A"/>
<path d="M124.686 136.376C125.626 136.376 126.426 136.966 126.416 138.036H122.956C123.056 136.966 123.796 136.376 124.686 136.376ZM127.246 139.486H126.266C126.066 140.076 125.546 140.496 124.726 140.496C123.796 140.496 123.016 139.886 122.946 138.776H127.326C127.346 138.586 127.356 138.426 127.356 138.226C127.356 136.726 126.316 135.606 124.726 135.606C123.126 135.606 122.016 136.696 122.016 138.426C122.016 140.166 123.166 141.266 124.726 141.266C126.086 141.266 126.966 140.486 127.246 139.486Z" fill="#534B4A"/>
<path d="M128.217 138.416C128.217 140.116 129.347 141.266 130.807 141.266C131.817 141.266 132.527 140.746 132.857 140.156V141.176H133.777V135.696H132.857V136.696C132.537 136.126 131.837 135.606 130.817 135.606C129.347 135.606 128.217 136.706 128.217 138.416ZM132.857 138.426C132.857 139.716 131.997 140.466 130.997 140.466C129.997 140.466 129.147 139.706 129.147 138.416C129.147 137.126 129.997 136.396 130.997 136.396C131.997 136.396 132.857 137.156 132.857 138.426Z" fill="#534B4A"/>
<path d="M136.225 138.196C136.225 136.926 136.885 136.536 137.755 136.536H137.995V135.596C137.125 135.596 136.535 135.976 136.225 136.586V135.696H135.315V141.176H136.225V138.196Z" fill="#534B4A"/>
<path d="M139.956 136.716V133.776H139.046V141.176H139.956V140.166C140.296 140.766 141.006 141.266 142.006 141.266C143.476 141.266 144.606 140.116 144.606 138.416C144.606 136.706 143.486 135.606 142.006 135.606C141.036 135.606 140.306 136.106 139.956 136.716ZM143.676 138.416C143.676 139.706 142.826 140.466 141.816 140.466C140.826 140.466 139.956 139.716 139.956 138.426C139.956 137.156 140.826 136.396 141.816 136.396C142.826 136.396 143.676 137.126 143.676 138.416Z" fill="#534B4A"/>
<path d="M147.883 140.136L146.163 135.696H145.153L147.363 141.116L146.283 143.756H147.223L150.523 135.696H149.583L147.883 140.136Z" fill="#534B4A"/>
<path d="M153.419 231C153.419 234.866 150.285 238 146.419 238C142.553 238 139.419 234.866 139.419 231C139.419 227.134 142.553 224 146.419 224C150.285 224 153.419 227.134 153.419 231Z" fill="#6A8AFE"/>
<defs>
<filter id="filter0_d_3_25038" x="0.419434" y="121" width="177.765" height="40.1177" filterUnits="userSpaceOnUse" color-interpolation-filters="sRGB">
<feFlood flood-opacity="0" result="BackgroundImageFix"/>
<feColorMatrix in="SourceAlpha" type="matrix" values="0 0 0 0 0 0 0 0 0 0 0 0 0 0 0 0 0 0 127 0" result="hardAlpha"/>
<feOffset dy="4"/>
<feGaussianBlur stdDeviation="2"/>
<feComposite in2="hardAlpha" operator="out"/>
<feColorMatrix type="matrix" values="0 0 0 0 0 0 0 0 0 0 0 0 0 0 0 0 0 0 0.1 0"/>
<feBlend mode="normal" in2="BackgroundImageFix" result="effect1_dropShadow_3_25038"/>
<feBlend mode="normal" in="SourceGraphic" in2="effect1_dropShadow_3_25038" result="shape"/>
</filter>
</defs>
</svg>
