<svg width="18" height="14" viewBox="0 0 18 14" fill="none" xmlns="http://www.w3.org/2000/svg">
<path d="M3.3748 13.8265C5.23865 13.8265 6.7496 12.3156 6.7496 10.4517C6.7496 8.58785 5.23865 7.0769 3.3748 7.0769C1.51095 7.0769 0 8.58785 0 10.4517C0 12.3156 1.51095 13.8265 3.3748 13.8265Z" fill="white"/>
<path fill-rule="evenodd" clip-rule="evenodd" d="M3.3748 8.07477C2.06206 8.07477 0.99787 9.13896 0.99787 10.4517C0.99787 11.7644 2.06206 12.8286 3.3748 12.8286C4.68754 12.8286 5.75173 11.7644 5.75173 10.4517C5.75173 9.13896 4.68754 8.07477 3.3748 8.07477ZM0 10.4517C0 8.58785 1.51095 7.0769 3.3748 7.0769C5.23865 7.0769 6.7496 8.58785 6.7496 10.4517C6.7496 12.3156 5.23865 13.8265 3.3748 13.8265C1.51095 13.8265 0 12.3156 0 10.4517Z" fill="#2E2E2D"/>
<path d="M14.6254 13.8265C16.4892 13.8265 18.0002 12.3156 18.0002 10.4517C18.0002 8.58785 16.4892 7.0769 14.6254 7.0769C12.7615 7.0769 11.2506 8.58785 11.2506 10.4517C11.2506 12.3156 12.7615 13.8265 14.6254 13.8265Z" fill="white"/>
<path fill-rule="evenodd" clip-rule="evenodd" d="M14.6254 8.07477C13.3126 8.07477 12.2485 9.13896 12.2485 10.4517C12.2485 11.7644 13.3126 12.8286 14.6254 12.8286C15.9381 12.8286 17.0023 11.7644 17.0023 10.4517C17.0023 9.13896 15.9381 8.07477 14.6254 8.07477ZM11.2506 10.4517C11.2506 8.58785 12.7615 7.0769 14.6254 7.0769C16.4892 7.0769 18.0002 8.58785 18.0002 10.4517C18.0002 12.3156 16.4892 13.8265 14.6254 13.8265C12.7615 13.8265 11.2506 12.3156 11.2506 10.4517Z" fill="#2E2E2D"/>
<path d="M10.1886 9.26417H7.84362C7.71083 8.20233 7.25769 7.20624 6.54463 6.40832C5.83157 5.61041 4.89243 5.04859 3.85214 4.79775C3.85214 4.79775 0.371565 3.35876 2.57885 3.37074C4.78614 3.38271 8.31461 4.13521 8.73771 5.39852C9.1608 6.66182 10.5159 4.61219 11.402 4.29686C12.2881 3.98153 8.73771 0.401123 8.73771 0.401123C8.73771 0.401123 13.9725 4.27287 13.2899 5.07316C10.6995 6.40232 10.3043 7.58176 10.1886 9.26417Z" fill="white"/>
<path fill-rule="evenodd" clip-rule="evenodd" d="M9.03449 1.17349e-06L8.7378 0.401139C9.03449 1.15982e-06 9.03442 -5.17022e-05 9.03449 1.17349e-06L9.0388 0.00319028L9.05053 0.011905L9.09527 0.0452782C9.1342 0.0744001 9.19092 0.116998 9.26269 0.171373C9.40621 0.280101 9.61008 0.436041 9.85245 0.625592C10.3365 1.00416 10.9771 1.51917 11.598 2.06118C12.2144 2.59931 12.8294 3.17955 13.2506 3.68684C13.458 3.9367 13.643 4.19769 13.7493 4.44692C13.845 4.67114 13.9495 5.06884 13.6697 5.39694L13.6056 5.47203L13.5178 5.51709C12.2611 6.1619 11.5999 6.7394 11.2295 7.30844C10.8624 7.87227 10.7424 8.48474 10.6864 9.29843L10.6545 9.76312H7.40329L7.34864 9.3261C7.22843 8.36488 6.81823 7.46315 6.1727 6.7408C5.52718 6.01846 4.677 5.50987 3.73528 5.2828L3.50973 5.22841L3.48792 5.18478C3.39604 5.14486 3.27315 5.09045 3.13376 5.0261C2.83677 4.889 2.45104 4.70045 2.13026 4.50706C1.97152 4.41136 1.81208 4.30465 1.68419 4.19329C1.62028 4.13765 1.55219 4.07052 1.49478 3.99274C1.44085 3.91969 1.36965 3.80162 1.35128 3.64781C1.32988 3.46854 1.38704 3.29324 1.50987 3.15993C1.61553 3.04525 1.74567 2.98705 1.84395 2.9547C2.03981 2.89024 2.29374 2.87026 2.58166 2.87183C3.72999 2.87806 5.20938 3.07543 6.46509 3.43582C7.09248 3.61588 7.68536 3.84262 8.15924 4.11971C8.61719 4.38749 9.04689 4.75032 9.21091 5.24008C9.21662 5.25714 9.22208 5.27172 9.22714 5.2841C9.24559 5.27589 9.26703 5.26526 9.29162 5.25166C9.3743 5.20593 9.47275 5.13778 9.58848 5.04705C9.73589 4.93148 9.87501 4.8097 10.0247 4.67867C10.1265 4.58955 10.2332 4.49616 10.3507 4.39752C10.5397 4.23889 10.7616 4.06272 10.9933 3.93652C10.9747 3.89509 10.9511 3.84789 10.9221 3.79491C10.7383 3.45947 10.4038 3.0131 10.0186 2.5497C9.63881 2.09287 9.22998 1.64335 8.91456 1.30658C8.75721 1.13858 8.62389 0.99948 8.53011 0.902592C8.48324 0.854163 8.44629 0.816321 8.4212 0.790734L8.39272 0.761765L8.38562 0.754573L8.38394 0.752869C8.38372 0.753084 8.38394 0.752869 8.38394 0.752869L9.03449 1.17349e-06ZM4.00897 4.32247C5.13198 4.60171 6.14526 5.21257 6.91676 6.07588C7.59869 6.83896 8.06348 7.76764 8.267 8.76525H9.73234C9.81157 8.0676 9.97753 7.40246 10.3932 6.76399C10.8627 6.0429 11.6172 5.4059 12.7977 4.7685C12.7382 4.6571 12.6356 4.50825 12.4828 4.32425C12.3471 4.16079 12.1846 3.98458 12.0032 3.80071C12.0202 3.86414 12.0326 3.92797 12.0387 3.99134C12.0505 4.11414 12.0425 4.27452 11.9608 4.43157C11.8726 4.60087 11.7278 4.71057 11.5694 4.76694C11.443 4.81189 11.2548 4.94152 10.9922 5.16186C10.9095 5.2313 10.816 5.31291 10.7181 5.39827C10.5484 5.54631 10.3658 5.70565 10.2042 5.83234C10.0687 5.93856 9.92315 6.0427 9.77457 6.12488C9.62985 6.20491 9.45198 6.28132 9.25613 6.3003C9.04361 6.32091 8.81761 6.27194 8.62329 6.11447C8.44338 5.96868 8.33439 5.76508 8.2647 5.55698C8.21718 5.41509 8.04715 5.21012 7.65554 4.98112C7.27986 4.76145 6.77334 4.56244 6.18981 4.39497C5.19589 4.10971 4.04042 3.93329 3.06514 3.88385C3.23104 3.96898 3.39994 4.04991 3.55201 4.12012C3.69357 4.18547 3.81717 4.23998 3.90516 4.27806L4.00897 4.32247ZM2.15223 3.90392C2.15218 3.90389 2.15318 3.90347 2.15536 3.90274L2.15223 3.90392Z" fill="#2E2E2D"/>
</svg>
