<svg width="17" height="16" viewBox="0 0 17 16" fill="none" xmlns="http://www.w3.org/2000/svg">
<path fill-rule="evenodd" clip-rule="evenodd" d="M4.29153 0.986014C2.99335 0.986025 1.94036 1.50227 1.48854 2.40605C0.477325 4.42882 1.07448 6.76734 2.58618 9.03498C4.09048 11.2915 6.43151 13.3615 8.64309 14.7437L8.50629 15.9387C6.20439 14.5 3.36431 11.9798 1.76576 9.58191C0.174611 7.19509 -0.63861 4.45598 0.606596 1.96515C1.28298 0.612167 2.76877 1.29592e-05 4.29152 2.09268e-10C5.82394 -1.3047e-05 7.50364 0.610061 8.73052 1.83694L8.50629 3.12053C7.47641 2.09066 5.58005 0.986003 4.29153 0.986014Z" fill="#2E2E2D"/>
<path fill-rule="evenodd" clip-rule="evenodd" d="M12.4721 0.986014C13.7703 0.986025 14.8233 1.50227 15.2751 2.40605C16.2863 4.42882 15.6892 6.76734 14.1775 9.03498C12.6732 11.2915 10.3322 13.3615 8.12058 14.7437L8.50628 15.9387C10.8082 14.5 13.3994 11.9798 14.9979 9.58191C16.5891 7.19509 17.4023 4.45598 16.1571 1.96515C15.4807 0.612167 13.9949 1.29592e-05 12.4721 2.09268e-10C10.9397 -1.3047e-05 9.26003 0.610061 8.03314 1.83694L8.50628 3.12053C9.53616 2.09066 11.1836 0.986003 12.4721 0.986014Z" fill="#2E2E2D"/>
</svg>
