<svg width="18" height="17" viewBox="0 0 18 17" fill="none" xmlns="http://www.w3.org/2000/svg">
<path fill-rule="evenodd" clip-rule="evenodd" d="M16.5141 0.971429H8.74262V11.6571H16.5141V0.971429ZM7.77119 0V12.6286H17.4855V0H7.77119Z" fill="black"/>
<path fill-rule="evenodd" clip-rule="evenodd" d="M0.971429 5.82861V6.64603H2.63267V5.82861H3.60409V7.61746H2.16809V13.9081C2.16809 14.0424 2.19287 14.678 2.58985 15.2735C2.77037 15.5442 3.03565 15.7363 3.30404 15.8619C3.5809 15.9914 3.81385 16.0286 3.88571 16.0286H12.1551C12.837 15.8632 13.5406 15.6764 14.1744 14.7773C14.3969 14.4617 14.4866 14.2317 14.531 13.8932C14.5736 13.5676 14.5729 13.1599 14.5718 12.5035C14.5716 12.3909 14.5714 12.271 14.5714 12.1429H15.5429C15.5429 12.2647 15.5431 12.3813 15.5434 12.4931C15.5448 13.139 15.5459 13.6245 15.4942 14.0194C15.4279 14.5254 15.2747 14.9026 14.9684 15.337C14.1095 16.5555 13.0871 16.8027 12.3522 16.9804L12.271 17H3.88571C3.63846 17 3.26428 16.9158 2.89234 16.7418C2.51194 16.5638 2.08678 16.2701 1.78158 15.8123C1.22925 14.9838 1.19667 14.1212 1.19667 13.9081V7.61746H0V5.82861H0.971429Z" fill="black"/>
</svg>
