<svg width="17" height="17" viewBox="0 0 17 17" fill="none" xmlns="http://www.w3.org/2000/svg">
<path d="M7.24051 11.6875L6.57446 11.1086L8.30895 8.81179H6.375L9.00969 5.3125L9.67574 5.89138L8.16846 7.89226H10.0938L7.24051 11.6875Z" fill="#2E2E2D"/>
<path fill-rule="evenodd" clip-rule="evenodd" d="M12.5278 8.84654C12.525 8.24551 12.335 7.66027 11.9843 7.17219L12.2774 6.96154C12.6719 7.51054 12.8856 8.16883 12.8887 8.84488C12.8918 9.52094 12.6842 10.1812 12.2948 10.7338L11.9997 10.5258C12.346 10.0345 12.5305 9.44758 12.5278 8.84654Z" fill="#1D0F07"/>
<path fill-rule="evenodd" clip-rule="evenodd" d="M3.52729 8.83492C3.53005 8.23744 3.71889 7.65565 4.06756 7.17045L3.77616 6.96104C3.38396 7.50681 3.17155 8.16121 3.16846 8.83327C3.16536 9.50534 3.37174 10.1617 3.75889 10.711L4.05221 10.5043C3.70802 10.0159 3.52454 9.43241 3.52729 8.83492Z" fill="#1D0F07"/>
<path fill-rule="evenodd" clip-rule="evenodd" d="M8.5 15.9375C12.6076 15.9375 15.9375 12.6076 15.9375 8.5C15.9375 4.39238 12.6076 1.0625 8.5 1.0625C4.39238 1.0625 1.0625 4.39238 1.0625 8.5C1.0625 12.6076 4.39238 15.9375 8.5 15.9375ZM8.5 17C13.1944 17 17 13.1944 17 8.5C17 3.80558 13.1944 0 8.5 0C3.80558 0 0 3.80558 0 8.5C0 13.1944 3.80558 17 8.5 17Z" fill="black"/>
</svg>
