<svg width="16" height="17" viewBox="0 0 16 17" fill="none" xmlns="http://www.w3.org/2000/svg">
<path fill-rule="evenodd" clip-rule="evenodd" d="M0 0H16V11.7132L8.22211 16.0596L0 11.7202V0ZM0.864865 0.864865V11.1987L8.21032 15.0755L15.1351 11.2057V0.864865H0.864865Z" fill="black"/>
<path d="M7.70108 8.51436L7.42384 2.81079H8.91852L8.63525 8.51436H7.70108ZM8.21939 11.027C7.98234 11.027 7.77742 10.9534 7.60465 10.8061C7.43589 10.6622 7.35152 10.4892 7.35152 10.2871C7.35152 10.085 7.43589 9.91198 7.60465 9.76811C7.77742 9.62424 7.98234 9.5523 8.21939 9.5523C8.45244 9.5523 8.65333 9.62424 8.82209 9.76811C8.99486 9.90856 9.08125 10.0816 9.08125 10.2871C9.08125 10.4926 8.99486 10.6673 8.82209 10.8112C8.64932 10.9551 8.44842 11.027 8.21939 11.027Z" fill="black"/>
</svg>
